<svg width="43" height="38" viewBox="0 0 43 38" fill="none" xmlns="http://www.w3.org/2000/svg">
<g clip-path="url(#clip0_9_264)">
<path fill-rule="evenodd" clip-rule="evenodd" d="M29.5205 26.1506H11.2362C11.2362 26.1506 3.35049 25.4356 3.40012 19.2203C3.42755 15.7135 7.07395 12.5786 11.2362 12.2899C11.2362 7.50561 14.6985 3.04938 20.3783 3.04938C24.8619 3.04938 27.8527 5.47037 28.9184 8.84084C35.3884 8.59134 39.7649 13.1192 39.9686 16.9101C40.2429 22.0074 34.2234 26.1506 29.5205 26.1506ZM30.914 6.54693C28.9968 3.11062 25.0056 0.739258 20.3783 0.739258C14.1748 0.739258 9.10742 4.99216 8.6673 10.3782C4.10799 11.5275 0.788086 15.0505 0.788086 19.2203C0.788086 24.1408 5.41139 28.15 11.2362 28.4342C11.2362 28.4342 29.2998 28.4608 29.5205 28.4608C36.3731 28.4608 42.5806 23.5483 42.5806 17.4877C42.5806 11.6488 37.4193 6.88767 30.914 6.54693ZM33.4385 31.9259C32.7176 31.9259 32.1325 32.4423 32.1325 33.081V36.5462C32.1325 37.1849 32.7176 37.7013 33.4385 37.7013C34.1594 37.7013 34.7445 37.1849 34.7445 36.5462V33.081C34.7445 32.4423 34.1594 31.9259 33.4385 31.9259ZM25.6024 31.9259C24.8815 31.9259 24.2964 32.4423 24.2964 33.081V36.5462C24.2964 37.1849 24.8815 37.7013 25.6024 37.7013C26.3233 37.7013 26.9084 37.1849 26.9084 36.5462V33.081C26.9084 32.4423 26.3233 31.9259 25.6024 31.9259ZM9.93021 31.9259C9.20929 31.9259 8.62419 32.4423 8.62419 33.081V36.5462C8.62419 37.1849 9.20929 37.7013 9.93021 37.7013C10.6511 37.7013 11.2362 37.1849 11.2362 36.5462V33.081C11.2362 32.4423 10.6511 31.9259 9.93021 31.9259ZM17.7663 31.9259C17.0454 31.9259 16.4603 32.4423 16.4603 33.081V36.5462C16.4603 37.1849 17.0454 37.7013 17.7663 37.7013C18.4872 37.7013 19.0723 37.1849 19.0723 36.5462V33.081C19.0723 32.4423 18.4872 31.9259 17.7663 31.9259Z" fill="white"/>
</g>
<defs>
<clipPath id="clip0_9_264">
<rect width="41.7926" height="36.962" fill="white" transform="translate(0.788086 0.739258)"/>
</clipPath>
</defs>
</svg>
