<svg width="44" height="39" viewBox="0 0 44 39" fill="none" xmlns="http://www.w3.org/2000/svg">
<path d="M29.0107 11.9415C29.9883 10.9754 31.4092 10.3674 32.9905 10.3674C35.9395 10.3674 38.33 12.4817 38.33 15.0897C38.33 17.6979 35.9395 19.812 32.9905 19.812H6.29321M16.0987 8.26864C16.7505 7.62457 17.6977 7.21924 18.752 7.21924C20.7179 7.21924 22.3116 8.62874 22.3116 10.3674C22.3116 12.1061 20.7179 13.5156 18.752 13.5156H6.29321M21.4382 31.3554C22.09 31.9995 23.0372 32.4049 24.0914 32.4049C26.0574 32.4049 27.6511 30.9954 27.6511 29.2566C27.6511 27.5179 26.0574 26.1084 24.0914 26.1084H6.29321" stroke="white" stroke-width="3.1482" stroke-linecap="round" stroke-linejoin="round"/>
</svg>
