<svg width="49" height="49" viewBox="0 0 49 49" fill="none" xmlns="http://www.w3.org/2000/svg">
<g clip-path="url(#clip0_9_1142)">
<path d="M49 23.129C49.0002 24.5848 48.5829 26.0101 47.7974 27.2358C47.0119 28.4615 45.8913 29.4362 44.5685 30.0441C44.0383 29.1138 43.3714 28.2684 42.5901 27.5362C43.759 27.2177 44.7534 26.448 45.3548 25.3963C45.9561 24.3446 46.115 23.0971 45.7966 21.9283C45.4781 20.7594 44.7084 19.7649 43.6567 19.1636C42.605 18.5623 41.3575 18.4034 40.1887 18.7218C39.9783 18.7788 39.7582 18.79 39.5431 18.7546C39.3281 18.7191 39.1232 18.6379 38.9422 18.5164C38.7613 18.3949 38.6085 18.236 38.4944 18.0504C38.3802 17.8647 38.3072 17.6567 38.2803 17.4404C38.0651 15.6974 37.3518 14.0535 36.2258 12.7056C35.0999 11.3578 33.6091 10.3632 31.9323 9.84123C30.2554 9.31921 28.4636 9.29187 26.7715 9.76248C25.0795 10.2331 23.5591 11.1817 22.3926 12.4945C21.092 12.4349 19.7889 12.5247 18.5089 12.7624C19.6761 10.613 21.4633 8.86479 23.6379 7.74532C25.8126 6.62584 28.2738 6.18696 30.7013 6.4858C33.1289 6.78465 35.4102 7.80737 37.2483 9.42084C39.0865 11.0343 40.3964 13.1638 41.0074 15.5321C42.0374 15.4801 43.0673 15.638 44.0343 15.9963C45.0014 16.3546 45.8856 16.9058 46.6331 17.6163C47.3806 18.3268 47.9759 19.1818 48.3828 20.1295C48.7897 21.0772 48.9997 22.0977 49 23.129Z" fill="white"/>
<path d="M21.6072 15.52C24.9767 15.5194 28.2281 16.7608 30.7398 19.0068C33.2514 21.2529 34.847 24.346 35.2214 27.6945H35.3036C37.3216 27.6945 39.257 28.4962 40.684 29.9232C42.111 31.3502 42.9126 33.2856 42.9126 35.3036C42.9126 37.3217 42.111 39.2571 40.684 40.684C39.257 42.111 37.3216 42.9127 35.3036 42.9127H9.43271C7.07499 42.9145 4.80797 42.0042 3.1062 40.3724C1.40442 38.7405 0.399821 36.5137 0.302682 34.158C0.205543 31.8023 1.0234 29.5003 2.58505 27.7339C4.14669 25.9675 6.33107 24.8737 8.68094 24.6813C9.62149 22.0037 11.3703 19.6841 13.6858 18.0431C16.0013 16.402 18.7692 15.5204 21.6072 15.52ZM32.2599 29.2164C32.2617 26.6217 31.3165 24.1156 29.6017 22.1685C27.8869 20.2213 25.5203 18.9669 22.9463 18.6408C20.3722 18.3146 17.7676 18.9391 15.6214 20.3971C13.4751 21.855 11.9347 24.0462 11.2893 26.5593C11.202 26.8994 10.9997 27.1989 10.7168 27.4069C10.4339 27.6149 10.0878 27.7187 9.73708 27.7006C8.92857 27.6647 8.12101 27.7904 7.36166 28.0703C6.6023 28.3503 5.90638 28.7788 5.31461 29.3309C4.72285 29.8829 4.24711 30.5475 3.91522 31.2856C3.58334 32.0237 3.40197 32.8206 3.38174 33.6297C3.3615 34.4387 3.5028 35.2437 3.79736 35.9975C4.09193 36.7513 4.53385 37.4388 5.09728 38.0198C5.66071 38.6007 6.33433 39.0635 7.07875 39.381C7.82316 39.6986 8.62342 39.8645 9.43271 39.8691H35.3036C35.9509 39.8676 36.5905 39.7284 37.18 39.4609C37.7694 39.1933 38.2953 38.8034 38.7226 38.3172C39.1499 37.8309 39.4689 37.2593 39.6584 36.6403C39.8479 36.0213 39.9036 35.3691 39.8219 34.727C39.7401 34.0848 39.5227 33.4674 39.1841 32.9157C38.8455 32.3639 38.3935 31.8905 37.858 31.5268C37.3224 31.1631 36.7157 30.9175 36.078 30.8062C35.4403 30.6949 34.7862 30.7204 34.1592 30.8812C33.9325 30.9393 33.6955 30.9443 33.4666 30.8959C33.2377 30.8474 33.0231 30.7469 32.8393 30.602C32.6556 30.4572 32.5078 30.2719 32.4073 30.0606C32.3068 29.8493 32.2564 29.6177 32.2599 29.3838V29.2164Z" fill="white"/>
</g>
<defs>
<clipPath id="clip0_9_1142">
<rect width="48.6981" height="48.6981" fill="white" transform="translate(0.30188 0.301758)"/>
</clipPath>
</defs>
</svg>
