<svg width="46" height="46" viewBox="0 0 46 46" fill="none" xmlns="http://www.w3.org/2000/svg">
<path d="M6.23359 29.1147C4.61578 27.0129 3.80688 25.962 3.80688 22.8415C3.80688 19.721 4.61578 18.6701 6.23359 16.5683C9.46391 12.3716 14.8815 7.61377 22.8415 7.61377C30.8016 7.61377 36.2191 12.3716 39.4495 16.5683C41.0672 18.6701 41.8762 19.721 41.8762 22.8415C41.8762 25.962 41.0672 27.0129 39.4495 29.1147C36.2191 33.3113 30.8016 38.0692 22.8415 38.0692C14.8815 38.0692 9.46391 33.3113 6.23359 29.1147Z" stroke="white" stroke-width="2.8552"/>
<path d="M28.552 22.8413C28.552 25.9951 25.9955 28.5517 22.8416 28.5517C19.6878 28.5517 17.1312 25.9951 17.1312 22.8413C17.1312 19.6874 19.6878 17.1309 22.8416 17.1309C25.9955 17.1309 28.552 19.6874 28.552 22.8413Z" stroke="white" stroke-width="2.8552"/>
</svg>
