<svg width="23" height="22" viewBox="0 0 23 22" fill="none" xmlns="http://www.w3.org/2000/svg">
<path d="M11.6435 22C11.0126 21.9997 10.3828 21.9483 9.76018 21.8463C6.71489 21.3468 3.99246 19.6595 2.1908 17.1551C0.389146 14.6506 -0.344411 11.5338 0.151245 8.48908C0.428604 6.75579 1.09706 5.10836 2.10596 3.67164C3.11485 2.23493 4.43771 1.04664 5.97426 0.19684C6.23349 0.0520553 6.52887 -0.0152583 6.82527 0.00290411C7.12167 0.0210665 7.40661 0.123941 7.64621 0.299292C7.89112 0.466791 8.08205 0.701823 8.19578 0.975795C8.30951 1.24977 8.34113 1.55087 8.28681 1.84248L7.45403 1.77845L8.24197 1.91932C7.79743 4.27636 8.21284 6.71459 9.41283 8.79168C10.6128 10.8688 12.5179 12.4471 14.7824 13.2403C16.5264 13.8453 18.4025 13.9626 20.2083 13.5797C20.494 13.5236 20.7897 13.5485 21.0621 13.6514C21.3345 13.7544 21.5727 13.9313 21.7498 14.1623C21.927 14.3933 22.036 14.6692 22.0648 14.9588C22.0935 15.2485 22.0406 15.5404 21.9123 15.8016C20.9243 17.6688 19.4466 19.2321 17.6377 20.324C15.8288 21.4159 13.7567 21.9953 11.6435 22ZM6.6661 1.64398C5.44083 2.33844 4.37548 3.28289 3.53933 4.41591C2.70317 5.54894 2.11492 6.84517 1.81282 8.22036C1.51072 9.59554 1.50154 11.0189 1.78586 12.3978C2.07019 13.7768 2.64166 15.0805 3.46312 16.2242C4.45323 17.6077 5.77913 18.7166 7.3161 19.4467C8.85307 20.1769 10.5506 20.5042 12.249 20.3978C13.9473 20.2915 15.5908 19.7551 17.0246 18.8391C18.4584 17.923 19.6356 16.6574 20.4453 15.1613C18.3849 15.5753 16.2513 15.4339 14.2636 14.7515C11.6408 13.8323 9.43344 12.0058 8.04013 9.60198C6.64682 7.19818 6.15947 4.37555 6.6661 1.64398Z" fill="white"/>
</svg>
