<svg width="22" height="22" viewBox="0 0 22 22" fill="none" xmlns="http://www.w3.org/2000/svg">
<g clip-path="url(#clip0_11_2)">
<path d="M20.7777 9.77783H17.7423C16.5201 10.8589 17.2663 12.2223 18.3333 12.2223H21.3687C22.5903 11.1412 21.8447 9.77783 20.7777 9.77783Z" fill="white"/>
<path d="M10.9991 9.77745C10.6335 9.77745 10.2898 9.93931 10.0561 10.2215C9.88856 10.4238 9.70852 10.7686 9.80243 11.2637C9.88698 11.7108 10.2885 12.112 10.7358 12.1968C10.8246 12.2136 10.913 12.2221 10.9984 12.2221C11.3639 12.2221 11.7076 12.0603 11.9414 11.7782C12.109 11.5758 12.2893 11.2309 12.1959 10.7373C12.111 10.2894 11.7092 9.88755 11.2617 9.80279C11.1729 9.78598 11.0845 9.77745 10.9991 9.77745ZM10.9991 7.33301C11.2337 7.33301 11.4734 7.35501 11.7162 7.40097C13.1517 7.67291 14.3257 8.84685 14.5976 10.2824C15.0405 12.6227 13.2588 14.6666 10.9984 14.6666C10.7639 14.6666 10.5242 14.6446 10.2813 14.5986C8.84644 14.3267 7.67188 13.1527 7.40055 11.7179C6.9565 9.37694 8.73865 7.33298 10.9991 7.33301Z" fill="white"/>
<path d="M20.782 9.77783H18.329C17.6564 9.77783 17.1111 10.3231 17.1111 10.9958V11.0043C17.1111 11.677 17.6564 12.2223 18.329 12.2223H20.782C21.4547 12.2223 22 11.677 22 11.0043V10.9958C22 10.3231 21.4547 9.77783 20.782 9.77783Z" fill="white"/>
<path d="M12.2222 20.7823V18.3293C12.2222 17.6566 11.6769 17.1113 11.0042 17.1113H10.9957C10.323 17.1113 9.77772 17.6566 9.77772 18.3293V20.7823C9.77772 21.4549 10.323 22.0002 10.9957 22.0002H11.0042C11.6769 22.0002 12.2222 21.4549 12.2222 20.7823Z" fill="white"/>
<path d="M12.2222 3.67094V1.21794C12.2222 0.545292 11.6769 0 11.0042 0L10.9957 0C10.323 0 9.77772 0.545292 9.77772 1.21794V3.67094C9.77772 4.3436 10.323 4.88889 10.9957 4.88889H11.0042C11.6769 4.88889 12.2222 4.3436 12.2222 3.67094Z" fill="white"/>
<path d="M3.67094 9.77783H1.21794C0.545292 9.77783 0 10.3231 0 10.9958V11.0043C0 11.677 0.545292 12.2223 1.21794 12.2223H3.67094C4.3436 12.2223 4.88889 11.677 4.88889 11.0043V10.9958C4.88889 10.3231 4.3436 9.77783 3.67094 9.77783Z" fill="white"/>
<path d="M17.5909 2.7817L16.2258 4.14677C15.7764 4.59615 15.7764 5.32475 16.2258 5.77413C16.6752 6.22352 17.4038 6.22352 17.8532 5.77413L19.2182 4.40906C19.6676 3.95968 19.6676 3.23108 19.2182 2.7817C18.7688 2.33231 18.0402 2.33231 17.5909 2.7817Z" fill="white"/>
<path d="M17.8528 16.226C17.4035 15.7767 16.675 15.7767 16.2257 16.226C15.7764 16.6753 15.7764 17.4038 16.2257 17.8531L17.5905 19.218C18.0399 19.6673 18.7683 19.6673 19.2177 19.218C19.667 18.7687 19.667 18.0402 19.2177 17.5909L17.8528 16.226Z" fill="white"/>
<path d="M4.40882 2.78153C3.95944 2.33215 3.23084 2.33215 2.78146 2.78153C2.33207 3.23092 2.33207 3.95951 2.78146 4.4089L4.14653 5.77397C4.59591 6.22335 5.32451 6.22335 5.77389 5.77397C6.22328 5.32458 6.22328 4.59599 5.77389 4.1466L4.40882 2.78153Z" fill="white"/>
<path d="M4.14653 16.2265L2.78146 17.5916C2.33207 18.041 2.33207 18.7696 2.78146 19.219C3.23084 19.6683 3.95944 19.6683 4.40882 19.219L5.77389 17.8539C6.22328 17.4045 6.22328 16.6759 5.77389 16.2265C5.32451 15.7771 4.59591 15.7771 4.14653 16.2265Z" fill="white"/>
</g>
<defs>
<clipPath id="clip0_11_2">
<rect width="22" height="22" fill="white"/>
</clipPath>
</defs>
</svg>
