<svg width="22" height="22" viewBox="0 0 22 22" fill="none" xmlns="http://www.w3.org/2000/svg">
<g clip-path="url(#clip0_10_1163)">
<path fill-rule="evenodd" clip-rule="evenodd" d="M7.54527 2.05397C8.47302 1.63824 9.27677 2.57736 8.98653 3.39277C8.00172 6.15954 8.6068 9.30199 10.6509 11.3453C12.7055 13.3991 15.8687 14.0027 18.6445 13.0003C19.4521 12.7086 20.3658 13.5044 19.9665 14.4101C19.9547 14.4369 19.9427 14.4636 19.9307 14.4903C19.22 16.0663 18.0832 17.5483 16.6124 18.542C15.0447 19.6011 13.196 20.167 11.3039 20.167H11.303C9.10274 20.1646 6.97181 19.3971 5.27549 17.9963C3.57916 16.5954 2.42308 14.6483 2.00552 12.4886C1.58796 10.3289 1.93495 8.09136 2.98697 6.15944C3.98429 4.32798 5.66133 2.90473 7.51799 2.06624L7.54527 2.05397Z" fill="white"/>
</g>
<defs>
<clipPath id="clip0_10_1163">
<rect width="22" height="22" fill="white"/>
</clipPath>
</defs>
</svg>
