<svg width="31" height="31" viewBox="0 0 31 31" fill="none" xmlns="http://www.w3.org/2000/svg">
<path d="M26.1069 15.5026C26.1069 21.3593 21.3591 26.1072 15.5024 26.1072M26.1069 15.5026C26.1069 9.64587 21.3591 4.89804 15.5024 4.89804M26.1069 15.5026H29.1368M15.5024 26.1072C9.64562 26.1072 4.89779 21.3593 4.89779 15.5026M15.5024 26.1072V29.137M15.5024 4.89804C9.64562 4.89804 4.89779 9.64587 4.89779 15.5026M15.5024 4.89804V1.86816M4.89779 15.5026H1.86792M20.0472 15.5026C20.0472 18.0127 18.0125 20.0474 15.5024 20.0474C12.9923 20.0474 10.9575 18.0127 10.9575 15.5026C10.9575 12.9925 12.9923 10.9578 15.5024 10.9578C18.0125 10.9578 20.0472 12.9925 20.0472 15.5026Z" stroke="white" stroke-width="3.02987" stroke-linecap="round" stroke-linejoin="round"/>
</svg>
