<svg width="46" height="41" viewBox="0 0 46 41" fill="none" xmlns="http://www.w3.org/2000/svg">
<path d="M29.8128 7.535C29.8128 -0.273439 16.3828 -0.275939 16.3842 7.535V24.0845C14.6385 25.6147 13.5571 27.7362 13.5571 30.0802C13.5571 34.7408 17.8288 38.5187 23.0985 38.5187C28.3681 38.5187 32.6398 34.7408 32.6398 30.0802C32.6398 27.7362 31.5585 25.6147 29.8128 24.0845V7.535ZM23.0985 36.591C18.9992 36.591 15.6774 33.6519 15.6774 30.0265C15.6774 28.085 16.6302 26.341 18.144 25.1396L18.1511 25.1346L18.1596 25.1196C18.3434 24.9671 18.4635 24.7571 18.4861 24.5233V24.5196C18.4875 24.5021 18.496 24.4895 18.4974 24.472L18.5059 24.4358V7.53375C18.5017 7.4675 18.4988 7.38999 18.4988 7.31123C18.4988 5.18097 20.4509 3.45451 22.8596 3.45451C22.9444 3.45451 23.0292 3.45701 23.1126 3.46076H23.1013C23.1734 3.45701 23.2568 3.45451 23.3416 3.45451C25.7503 3.45451 27.7024 5.18097 27.7024 7.31123C27.7024 7.38999 27.6995 7.4675 27.6939 7.54375V7.53375V24.4358L27.7024 24.472L27.7123 24.5171C27.7335 24.7558 27.855 24.9671 28.0388 25.1196L28.0473 25.1346C29.5682 26.3423 30.5209 28.0862 30.5209 30.0265C30.5209 33.6519 27.1977 36.5898 23.0985 36.591ZM24.1586 26.7361V12.3318C24.1586 11.8143 23.6837 11.3942 23.0985 11.3942C22.5133 11.3942 22.0383 11.8143 22.0383 12.3318V26.7361C20.393 27.1586 19.2113 28.4788 19.2113 30.044C19.2113 31.943 20.9513 33.4819 23.0985 33.4819C25.2456 33.4819 26.9857 31.943 26.9857 30.044C26.9857 28.4788 25.804 27.1586 24.1855 26.7423L24.1586 26.7361ZM37.9406 2.83694C35.4033 2.83694 33.3466 4.65591 33.3466 6.89993C33.3466 9.14395 35.4033 10.9629 37.9406 10.9629C40.4779 10.9629 42.5346 9.14395 42.5346 6.89993C42.5317 4.65716 40.4765 2.83944 37.9406 2.83694ZM37.9406 9.08769C36.5751 9.08769 35.4669 8.10757 35.4669 6.89993C35.4669 5.69228 36.5751 4.71216 37.9406 4.71216C39.3061 4.71216 40.4143 5.69228 40.4143 6.89993C40.4129 8.10757 39.3061 9.08644 37.9406 9.08769Z" fill="white"/>
</svg>
