<svg width="43" height="37" viewBox="0 0 43 37" fill="none" xmlns="http://www.w3.org/2000/svg">
<path d="M27.0856 5.03892C30.2926 4.42487 34.2713 4.45557 39.6855 5.64972C40.6185 5.85549 41.1857 6.68963 40.9525 7.5128C40.7193 8.33597 39.7739 8.83649 38.8409 8.63072C33.8072 7.52052 30.3853 7.55139 27.8242 8.04176C25.2552 8.53361 23.4085 9.50915 21.4521 10.564L21.3056 10.6431C19.4198 11.6606 17.3314 12.7874 14.5724 13.1931C11.7107 13.6138 8.33013 13.2418 3.79008 11.6394C2.89719 11.3242 2.4629 10.4301 2.8201 9.6423C3.17728 8.85449 4.1907 8.47132 5.0836 8.78648C9.25014 10.2571 11.9642 10.4614 14 10.1621C16.0667 9.85825 17.6424 9.01708 19.636 7.94214C21.5975 6.88451 23.8863 5.65144 27.0856 5.03892Z" fill="white"/>
<path d="M39.6855 11.7952C34.2713 10.6011 30.2926 10.5704 27.0856 11.1844C23.8863 11.797 21.5975 13.03 19.636 14.0876C17.6424 15.1626 16.0667 16.0038 14 16.3076C11.9642 16.6069 9.25014 16.4025 5.0836 14.932C4.1907 14.6168 3.17728 15 2.8201 15.7878C2.4629 16.5756 2.89719 17.4698 3.79008 17.7849C8.33013 19.3873 11.7107 19.7593 14.5724 19.3385C17.3314 18.9329 19.4198 17.8061 21.3056 16.7886L21.4521 16.7096C23.4085 15.6546 25.2552 14.6791 27.8242 14.1873C30.3853 13.6969 33.8072 13.666 38.8409 14.7762C39.7739 14.982 40.7193 14.4815 40.9525 13.6583C41.1857 12.8351 40.6185 12.001 39.6855 11.7952Z" fill="white"/>
<path fill-rule="evenodd" clip-rule="evenodd" d="M34.0392 15.4663C33.4346 15.4663 32.9309 15.7424 32.5793 16.1603C32.4558 16.3078 32.1704 16.6531 31.7913 17.1364C31.287 17.7791 30.6121 18.6721 29.9342 19.669C29.2596 20.661 28.5635 21.7828 28.031 22.8789C27.5212 23.9286 27.0722 25.0684 27.074 26.2239C27.0752 26.5483 27.1191 26.8742 27.1793 27.1934C27.28 27.7263 27.4844 28.46 27.9107 29.2123C28.3405 29.9708 29.0125 30.776 30.0531 31.388C31.1047 32.0065 32.4285 32.3663 34.0392 32.3663C35.65 32.3663 36.9738 32.0065 38.0252 31.388C39.0658 30.776 39.738 29.9708 40.1678 29.2125C40.594 28.46 40.7987 27.7263 40.8993 27.1936C40.9597 26.8739 41.0041 26.5471 41.0047 26.2224C41.0052 25.0669 40.5575 23.9288 40.0474 22.8789C39.5151 21.7828 38.8191 20.661 38.1445 19.669C37.4666 18.6721 36.7914 17.7791 36.2872 17.1364C35.9081 16.6531 35.6225 16.3078 35.4992 16.1603C35.1476 15.7424 34.6437 15.4663 34.0392 15.4663ZM36.8465 24.0894C36.3995 23.169 35.7895 22.1783 35.1581 21.2499C34.7741 20.6853 34.3891 20.1537 34.0392 19.6874C33.6894 20.1537 33.3044 20.6853 32.9204 21.2499C32.2892 22.1783 31.6792 23.169 31.2322 24.0894L31.2067 24.1414C30.899 24.7743 30.5354 25.5224 30.557 26.2215C30.5779 26.7744 30.7463 27.3451 31.0258 27.8383C31.2489 28.2322 31.5564 28.5793 31.985 28.8315C32.4027 29.0771 33.038 29.2935 34.0392 29.2935C35.0405 29.2935 35.6758 29.0771 36.0935 28.8315C36.5221 28.5793 36.8296 28.2321 37.0528 27.8383C37.3323 27.3451 37.5007 26.7744 37.5216 26.2213C37.5434 25.5226 37.1796 24.7744 36.8719 24.1418L36.8465 24.0894Z" fill="white"/>
<path d="M25.5584 17.7825C26.8823 17.4035 27.8974 18.6222 27.2748 19.7206C26.9905 20.2225 26.6706 20.6496 26.0346 20.8482C24.3331 21.3799 22.9237 22.1285 21.4521 22.9219L21.3056 23.0009C19.4197 24.0185 17.3314 25.1452 14.5724 25.5509C11.7107 25.9716 8.33015 25.5997 3.79008 23.9972C2.89718 23.6821 2.4629 22.788 2.82009 22.0002C3.1773 21.2123 4.1907 20.8291 5.08361 21.1444C9.25014 22.6149 11.9642 22.8192 14 22.52C16.0667 22.2161 17.6424 21.3749 19.636 20.3C21.5306 19.2784 23.4804 18.3775 25.5584 17.7825Z" fill="white"/>
</svg>
